<svg width="19" height="15" viewBox="0 0 19 15" fill="none" xmlns="http://www.w3.org/2000/svg">
<path d="M17.7188 0.806641H1.18125C0.867963 0.806641 0.567507 0.931093 0.34598 1.15262C0.124453 1.37415 0 1.6746 0 1.98789L0 13.0129C0 13.3262 0.124453 13.6266 0.34598 13.8482C0.567507 14.0697 0.867963 14.1941 1.18125 14.1941H17.7188C18.032 14.1941 18.3325 14.0697 18.554 13.8482C18.7755 13.6266 18.9 13.3262 18.9 13.0129V1.98789C18.9 1.6746 18.7755 1.37415 18.554 1.15262C18.3325 0.931093 18.032 0.806641 17.7188 0.806641ZM17.4667 1.59414L9.45 7.79177L1.43325 1.59414H17.4667ZM0.7875 12.8515V2.09027L6.85519 6.77983L0.7875 12.8515ZM1.34269 13.4066L7.48125 7.26808L9.20587 8.60289C9.27472 8.65589 9.35917 8.68463 9.44606 8.68463C9.53295 8.68463 9.6174 8.65589 9.68625 8.60289L11.4187 7.26808L17.5573 13.4066H1.34269ZM18.1125 12.8515L12.0448 6.77983L18.1125 2.09027V12.8515Z" fill="#33A699"/>
</svg>
