<svg width="111" height="27" viewBox="0 0 111 27" fill="none" xmlns="http://www.w3.org/2000/svg">
<path d="M16.4123 13.1574C16.4123 12.6767 16.2321 12.2111 15.8716 11.8356L5.34237 1.30636C4.62139 0.585381 3.46483 0.585381 2.74386 1.30636C2.02288 2.02733 2.02288 3.18389 2.74386 3.90487L12.0114 13.1724L2.74386 22.4399C2.02288 23.1609 2.02288 24.3174 2.74386 25.0384C3.46483 25.7594 4.62139 25.7594 5.34237 25.0384L15.8866 14.4942C16.2471 14.1187 16.4273 13.638 16.4123 13.1574Z" fill="#6C60F3"/>
<path d="M13.111 20.8923C13.832 20.1713 14.9886 20.1713 15.7096 20.8923L17.2867 22.4694C18.0077 23.1904 18.0077 24.347 17.2867 25.0679C16.5657 25.7889 15.4091 25.7889 14.6882 25.0679L13.111 23.4908C12.3901 22.7698 12.3901 21.6133 13.111 20.8923Z" fill="#6C60F3"/>
<path d="M7.75161 12.6011C8.12712 12.9766 8.09708 13.3822 7.72157 13.7577L3.29058 18.1736C2.82496 18.5191 2.16406 18.2037 2.16406 17.6179V8.71084C2.16406 8.12505 2.82496 7.80962 3.29058 8.15509L7.75161 12.6011Z" fill="#6C60F3"/>
<path d="M29.4994 17.8893L27.3365 14.1342H26.1649V17.8893H24.6328V8.51665H27.8622C28.5832 8.51665 29.184 8.63681 29.6796 8.89215C30.1903 9.1475 30.5508 9.47795 30.7911 9.89851C31.0465 10.3191 31.1666 10.7997 31.1666 11.3104C31.1666 11.9263 30.9864 12.482 30.6259 12.9777C30.2804 13.4733 29.7247 13.8038 28.9887 13.984L31.3018 17.8743H29.4994V17.8893ZM26.1649 12.9176H27.8622C28.4329 12.9176 28.8685 12.7674 29.1539 12.482C29.4543 12.1966 29.6045 11.8061 29.6045 11.3254C29.6045 10.8448 29.4543 10.4693 29.1689 10.1989C28.8836 9.91353 28.448 9.77835 27.8622 9.77835H26.1649V12.9176ZM35.5225 9.76333V12.512H38.7519V13.7587H35.5225V16.6276H39.1574V17.8743H33.9754V8.50163H39.1574V9.76333H35.5225ZM44.9553 8.51665C45.9466 8.51665 46.8178 8.71191 47.5688 9.10244C48.3198 9.47795 48.9056 10.0337 49.3112 10.7547C49.7317 11.4606 49.927 12.3018 49.927 13.248C49.927 14.1943 49.7167 15.0204 49.3112 15.7264C48.9056 16.4323 48.3198 16.9731 47.5688 17.3486C46.8178 17.7241 45.9466 17.9043 44.9553 17.9043H41.9062V8.51665H44.9553ZM44.9553 16.6426C46.0518 16.6426 46.8929 16.3422 47.4787 15.7564C48.0645 15.1706 48.3499 14.3295 48.3499 13.248C48.3499 12.1666 48.0645 11.3104 47.4787 10.6946C46.8929 10.0788 46.0518 9.77835 44.9553 9.77835H43.4382V16.6426H44.9553ZM53.8323 9.76333V12.512H57.0767V13.7587H53.8473V16.6276H57.4822V17.8743H52.3002V8.50163H57.4822V9.76333H53.8323ZM63.2951 17.9794C62.6642 17.9794 62.0934 17.8743 61.5978 17.649C61.0871 17.4237 60.6965 17.1083 60.4112 16.7027C60.1258 16.2972 59.9756 15.8315 59.9756 15.2908H61.6278C61.6578 15.6963 61.8231 16.0268 62.0934 16.2821C62.3788 16.5375 62.7844 16.6727 63.2951 16.6727C63.8208 16.6727 64.2413 16.5525 64.5417 16.2972C64.8421 16.0418 64.9924 15.7114 64.9924 15.3058C64.9924 14.9904 64.9022 14.7351 64.707 14.5398C64.5267 14.3445 64.3014 14.1943 64.016 14.0742C63.7457 13.969 63.3702 13.8489 62.8895 13.7287C62.2737 13.5635 61.778 13.3982 61.3875 13.248C61.012 13.0828 60.6815 12.8125 60.4112 12.467C60.1408 12.1215 60.0056 11.6559 60.0056 11.0701C60.0056 10.5294 60.1408 10.0637 60.4112 9.65819C60.6815 9.25264 61.057 8.93721 61.5377 8.72693C62.0183 8.51665 62.5891 8.39648 63.22 8.39648C64.1212 8.39648 64.8722 8.62179 65.443 9.08742C66.0288 9.53803 66.3442 10.1539 66.4193 10.9499H64.737C64.707 10.6045 64.5417 10.3191 64.2564 10.0788C63.9559 9.83843 63.5654 9.71827 63.0848 9.71827C62.6492 9.71827 62.2887 9.82341 62.0033 10.0487C61.7179 10.274 61.5827 10.6045 61.5827 11.025C61.5827 11.3104 61.6729 11.5507 61.8381 11.746C62.0183 11.9263 62.2436 12.0765 62.514 12.1816C62.7844 12.2867 63.1449 12.4069 63.6255 12.5271C64.2413 12.6923 64.752 12.8725 65.1426 13.0378C65.5331 13.203 65.8635 13.4733 66.1339 13.8338C66.4193 14.1793 66.5545 14.6599 66.5545 15.2457C66.5545 15.7264 66.4193 16.177 66.1639 16.5976C65.9086 17.0181 65.5331 17.3636 65.0524 17.6189C64.5417 17.8593 63.971 17.9794 63.2951 17.9794ZM70.7301 8.51665V17.8893H69.198V8.51665H70.7301ZM80.3731 11.2203C80.1328 10.7547 79.7873 10.4092 79.3668 10.1689C78.9312 9.92855 78.4355 9.80839 77.8647 9.80839C77.2489 9.80839 76.6932 9.94357 76.2125 10.229C75.7319 10.5143 75.3413 10.9049 75.071 11.4156C74.8006 11.9263 74.6654 12.5271 74.6654 13.188C74.6654 13.8639 74.8006 14.4647 75.071 14.9754C75.3563 15.4861 75.7319 15.8766 76.2125 16.162C76.6932 16.4474 77.2489 16.5825 77.8647 16.5825C78.7059 16.5825 79.3818 16.3422 79.9075 15.8766C80.4332 15.411 80.7486 14.7801 80.8688 13.969H77.354V12.7374H82.521V13.939C82.4159 14.6599 82.1605 15.3359 81.74 15.9517C81.3194 16.5675 80.7787 17.0482 80.1028 17.4237C79.4419 17.7842 78.6909 17.9644 77.8798 17.9644C76.9936 17.9644 76.1975 17.7691 75.4615 17.3636C74.7405 16.943 74.1547 16.3723 73.7191 15.6513C73.2986 14.9303 73.0883 14.1042 73.0883 13.188C73.0883 12.2717 73.2986 11.4456 73.7191 10.7246C74.1547 10.0037 74.7255 9.43288 75.4615 9.02734C76.1975 8.60677 77.0086 8.4115 77.8798 8.4115C78.8711 8.4115 79.7573 8.65183 80.5384 9.1475C81.3194 9.62815 81.8902 10.3191 82.2356 11.2203H80.3731ZM92.5546 17.8893H91.0225L86.3963 10.8899V17.8893H84.8642V8.50163H86.3963L91.0225 15.4861V8.50163H92.5546V17.8893ZM96.9555 9.76333V12.512H100.185V13.7587H96.9555V16.6276H100.59V17.8743H95.4084V8.50163H100.59V9.76333H96.9555ZM108.206 17.8893L106.043 14.1342H104.871V17.8893H103.339V8.51665H106.569C107.29 8.51665 107.89 8.63681 108.386 8.89215C108.897 9.1475 109.257 9.47795 109.513 9.89851C109.768 10.3191 109.888 10.7997 109.888 11.3104C109.888 11.9263 109.708 12.482 109.347 12.9777C109.002 13.4733 108.446 13.8038 107.71 13.984L110.023 17.8743H108.206V17.8893ZM104.871 12.9176H106.569C107.139 12.9176 107.575 12.7674 107.86 12.482C108.161 12.1966 108.311 11.8061 108.311 11.3254C108.311 10.8448 108.161 10.4693 107.875 10.1989C107.59 9.91353 107.154 9.77835 106.569 9.77835H104.871V12.9176Z" fill="black"/>
</svg>
