<svg width="18" height="18" viewBox="0 0 18 18" fill="none" xmlns="http://www.w3.org/2000/svg">
<path d="M0.603083 16.1179C0.261375 16.4596 0.261375 17.0136 0.603083 17.3553C0.944792 17.697 1.49881 17.697 1.84052 17.3553L0.603083 16.1179ZM17.6532 1.18022C17.6532 0.696974 17.2614 0.305223 16.7782 0.305223H8.90315C8.4199 0.305223 8.02815 0.696974 8.02815 1.18022C8.02815 1.66347 8.4199 2.05522 8.90315 2.05522H15.9032V9.05522C15.9032 9.53847 16.2949 9.93022 16.7782 9.93022C17.2614 9.93022 17.6532 9.53847 17.6532 9.05522V1.18022ZM1.84052 17.3553L17.3969 1.79894L16.1594 0.561505L0.603083 16.1179L1.84052 17.3553Z" fill="#33A699"/>
</svg>
